<svg width="610" height="335" fill="none" xmlns="http://www.w3.org/2000/svg"><g clip-path="url(#clip0_4144_57428)"><path d="M276.782 35.623L22.722 156.1C2.363 166.387-5.404 179.609 3.9 218.299c9.307 38.761 22.32 46.947 45.13 46.807l101.796-3.041c-2.008 23.052-9.416 47.686-18.671 72.935 44.775-10.136 75.796-39.637 91.702-75.117l106.172-3.173c39.743-1.19-17.003-238.298-53.247-221.087z" fill="#FFF238"/><path d="M241.811 143.715c-18.819 0-32.284 13.653-32.284 32.469.367 6.632 1.659 12.535 7.195 27.477l10.145 27.306 14.204-4.615-7.195-19.739c2.768 1.3 6.458 2.029 9.777 2.029 16.602 0 30.44-14.018 30.44-32.457s-13.653-32.469-32.287-32.469h.004l.001-.001zm-.185 49.621c-9.408 0-16.42-7.01-16.42-16.97 0-9.96 7.01-16.968 16.42-16.968 9.409 0 16.787 7.19 16.787 16.968 0 9.778-7.195 16.97-16.787 16.97zm-71.397.558c-5.351 0-10.516-2.224-13.283-7.021l45.937-15.306c-2.214-16.787-14.943-27.852-32.099-27.852-18.82 0-32.469 13.653-32.469 32.469 0 18.816 13.651 32.456 32.469 32.456 18.817 0 32.099-13.277 32.468-31.534l-16.42 5.526c-1.661 7.19-9.408 11.249-16.603 11.249v.013zm.922-36.162c4.982 0 10.147 2.029 13.098 7.19l-30.44 9.961c0-10.143 7.565-17.152 17.341-17.152l.001.001zm-42.983-10.142l-15.681 5.163 2.029 41.13c-5.718 2.405-8.118-.183-11.622-5.71l-17.526-27.125-16.05 5.356 20.66 31.728c5.535 8.296 15.128 12.73 25.275 8.855.555 7.737-2.767 12.171-9.039 12.171-3.873 0-8.118-2.028-10.146-6.643l-13.651 4.615c7.195 14.577 17.894 16.046 23.615 16.046 12.545 0 25.458-9.219 24.536-28.959l-2.398-56.629-.002.002z" fill="#000"/><path d="M381.638 129.414c-3.304-2.065-1.445-5.164 1.034-5.164 73.944 9.088 93.771-19.413 110.089-77.242.826-3.098 4.338-2.273 4.338 0 16.317 57.829 36.145 86.33 110.089 77.242 2.479 0 4.338 3.099 1.034 5.164-49.158 25.61-68.367 64.023-37.591 129.908 1.239 1.859-.826 4.749-3.511 2.065-45.853-44.198-99.142-43.579-144.375 0-2.685 2.684-4.75-.206-3.511-2.065 30.776-65.883 11.567-104.298-37.591-129.908h-.005z" fill="#FF4D9F"/><path d="M328.433 41.084c-1.609-1.005-.704-2.512.502-2.512 35.981 4.422 45.63-9.447 53.57-37.586.403-1.507 2.111-1.106 2.111 0 7.941 28.14 17.59 42.008 53.57 37.586 1.206 0 2.111 1.507.503 2.512-23.921 12.461-33.268 31.154-18.292 63.214.603.905-.402 2.312-1.708 1.005-22.313-21.507-48.243-21.205-70.255 0-1.306 1.306-2.312-.1-1.708-1.005 14.976-32.059 5.628-50.751-18.292-63.214h-.001z" fill="#4DC7FF"/></g><defs><clipPath id="clip0_4144_57428"><path fill="#fff" d="M0 0H610V335H0z"/></clipPath></defs></svg>