<svg width="34" height="34" viewBox="0 0 34 34" fill="none" xmlns="http://www.w3.org/2000/svg">
<g clip-path="url(#clip0_3270_1613)">
<rect x="0.5" y="0.5" width="33" height="33" rx="16.5" fill="url(#paint0_radial_3270_1613)"/>
<path d="M17.1893 25.25C16.1795 25.25 15.2779 25.0648 14.4844 24.6942C13.691 24.3607 13.0057 23.8976 12.4287 23.3047V23.527C12.4287 24.0828 12.2303 24.509 11.8336 24.8053C11.4729 25.1017 11.0582 25.25 10.5893 25.25C10.1205 25.25 9.6877 25.1017 9.29098 24.8053C8.93033 24.509 8.75 24.0828 8.75 23.527L8.75 0.5H12.4287V10.1875C13.0057 9.59461 13.691 9.13144 14.4844 8.79795C15.2779 8.46446 16.1795 8.29772 17.1893 8.29772C18.7762 8.29772 20.1648 8.66827 21.3549 9.40934C22.5812 10.1134 23.5369 11.0953 24.2221 12.3551C24.9074 13.615 25.25 15.0416 25.25 16.6349C25.25 18.2652 24.9074 19.7475 24.2221 21.0814C23.5369 22.3782 22.5812 23.3973 21.3549 24.1384C20.1648 24.8794 18.7762 25.25 17.1893 25.25ZM16.8648 21.804C18.2713 21.804 19.4074 21.3408 20.2729 20.4144C21.1385 19.4511 21.5713 18.1912 21.5713 16.6349C21.5713 15.1527 21.1385 13.967 20.2729 13.0777C19.4074 12.1884 18.2713 11.7438 16.8648 11.7438C15.4943 11.7438 14.4123 12.1884 13.6189 13.0777C12.8254 13.967 12.4287 15.1527 12.4287 16.6349C12.4287 18.1912 12.8254 19.4511 13.6189 20.4144C14.4123 21.3408 15.4943 21.804 16.8648 21.804Z" fill="white"/>
</g>
<defs>
<radialGradient id="paint0_radial_3270_1613" cx="0" cy="0" r="1" gradientUnits="userSpaceOnUse" gradientTransform="translate(35.2325 0.500007) rotate(177.875) scale(46.7271 63.2138)">
<stop offset="0.0224282" stop-color="#FF335F"/>
<stop offset="0.489616" stop-color="#430739"/>
<stop offset="0.806847" stop-color="#120107"/>
</radialGradient>
<clipPath id="clip0_3270_1613">
<rect x="0.5" y="0.5" width="33" height="33" rx="16.5" fill="white"/>
</clipPath>
</defs>
</svg>
